<svg width="7588" height="4452" viewBox="0 0 7588 4452" fill="none" xmlns="http://www.w3.org/2000/svg">
<path d="M2470.65 622.239L2171.38 764.079C2168.69 758.096 2169.71 752.783 2169.7 747.7L2169.59 377.437C2169.59 372.308 2170.71 366.958 2167.76 361.538C2161.96 359.579 2155.72 360.496 2149.62 360.496C1944.31 360.442 1739 360.454 1533.7 360.454C1529.87 360.454 1526.02 360.279 1522.21 360.538C1519.51 360.721 1516.85 361.5 1513.27 362.188L1513.17 1077.4C1507.42 1080.34 1502.45 1083.07 1497.33 1085.5L10.2683 1793.63C7.00131 1795.2 4.11828 1795.88 0.738281 1795.13V1798L524.668 1797.2C535.009 1797.22 544.168 1795.01 553.501 1790.57L3784.75 252.241C3793.49 248.032 3800.81 247.153 3808.74 252.611C3809.13 252.882 3809.56 253.107 3810 253.311L7038.85 1789.98C7049.06 1794.85 7059.08 1797.25 7070.42 1797.23L7587.13 1798V1795.13L4470.65 311.637C4401.47 278.707 3775.98 0.816406 3775.98 0.816406C3775.98 0.816406 2694.45 515.703 2470.65 622.237V622.239ZM1598.14 659.763C1598.09 526.571 1702.77 419.033 1838.47 418.375C1976.03 417.708 2080.69 527.083 2081.15 658.846C2081.61 792.317 1975.3 900.221 1840.1 901.108C1706.43 900.733 1598.2 795.413 1598.14 659.763Z" fill="url(#paint0_linear_1772_1863)"/>
<path d="M4185.25 2469.39C4223.86 2475.43 4451.89 2473.4 4470.43 2466.66C4424.63 2357.54 4378.88 2248.56 4333.14 2139.57C4331.15 2139.54 4329.16 2139.5 4327.17 2139.47C4279.81 2248.56 4232.67 2357.73 4185.25 2469.39Z" fill="url(#paint1_linear_1772_1863)"/>
<path d="M2322.6 2470.79H2601.28C2598.18 2447.91 2474.31 2154.35 2462.6 2141.01C2447.34 2163.6 2324.26 2452.76 2322.6 2470.79Z" fill="url(#paint2_linear_1772_1863)"/>
<path d="M3259.35 1996.57C3251.16 1998 3247.05 2002.47 3246.96 2010.73L3246.8 2328.05C3246.81 2336.41 3247.68 2344.76 3248.29 2355.73C3305.55 2359.47 3358.72 2357.02 3410.02 2337.8C3491.27 2307.34 3535.55 2239.34 3530.75 2152.88C3526.16 2070.21 3472.03 2007.36 3391.33 1990.93C3376.4 1987.89 3361.56 1986.66 3346.76 1986.66C3317.48 1986.66 3288.42 1991.47 3259.35 1996.57Z" fill="url(#paint3_linear_1772_1863)"/>
<path d="M2210.38 1124.09C1681.51 1375.84 1152.63 1627.59 624.18 1880.83C634.38 1882.7 644.347 1882.69 654.247 1882.68L768.547 1883.1C772.53 1889.32 771.234 1894.99 771.255 1900.38L771.601 3372.45C771.601 3379.51 770.559 3386.72 773.205 3394.51L988.905 3435.22L1271.69 3478.32L1628.52 3517.71L1891.13 3535.57L2190.66 3546.81C2193.92 3546.93 2197.15 3547.89 2200.4 3548.47H2369.38C2374.83 3547.83 2380.27 3546.81 2385.74 3546.63L2703.48 3534.65L3003.87 3511.89L3247.25 3485L3549.82 3439.93L4004.98 3356.13L4310.64 3309.64L4570.3 3279.84L4860.71 3257.1L5090.66 3246.98C5208.23 3241.9 5325.85 3243.55 5443.44 3244.47L5685.05 3253.34L5957.63 3270.95L6352.23 3314.84L6620.15 3356.63L6810.22 3392.29C6813.82 3392.96 6817.65 3392.39 6822.07 3392.39C6822.44 3389.43 6822.99 3386.79 6823.07 3384.12L6823.46 1900.46C6823.47 1895.08 6822.18 1889.41 6825.91 1883.46C6832.19 1882.39 6838.78 1882.54 6845.43 1882.68L6970.67 1882.39C6969.61 1880.39 6969.38 1879.08 6968.69 1878.76C5911.95 1375.51 4855.19 872.326 3797.38 368.656C3268.55 620.323 2739.48 872.231 2210.39 1124.09L2210.38 1124.09ZM1075.28 1947.1C1083.93 1940.49 1416.9 1940.23 1438.75 1945.94C1441.94 1965.95 1441.41 1967.5 1424.15 1967.66C1402.99 1967.86 1382.35 1968.89 1362.58 1977.87C1341.07 1987.63 1327.07 2002.87 1324.06 2026.66C1322.21 2041.28 1320.48 2056.03 1320.42 2070.73C1320.02 2159.4 1320.1 2248.08 1320.1 2336.76C1320.1 2341.34 1320.81 2345.92 1321.37 2352.63C1325.91 2350.5 1329.68 2349.7 1332.08 2347.45C1423.47 2261.88 1518.43 2180.01 1602.75 2087.12C1615.26 2073.35 1626.18 2058.12 1637.5 2043.3C1640.77 2039.03 1643.21 2034.01 1645.42 2029.06C1660.17 1996.01 1646.15 1971.95 1610.08 1968.41C1603.91 1967.8 1597.64 1968.2 1591.43 1967.82C1574.08 1966.76 1573.63 1966.03 1576.73 1945.98C1595.69 1940.96 1867.25 1940.74 1889.24 1946.03V1963.62C1886.84 1964.91 1884.9 1966.8 1882.87 1966.93C1833.24 1969.93 1791.5 1992.33 1754.45 2022.82C1720.3 2050.93 1688.05 2081.5 1656.5 2112.56L1443.58 2326.77C1449.07 2333.02 1453.3 2338.45 1458.14 2343.27C1564.03 2448.59 1669.91 2553.91 1776.03 2659C1790.38 2673.22 1805.78 2686.4 1821.01 2699.69C1868.89 2741.45 1923.02 2770.43 1986.45 2780.64C2002.65 2783.25 2002.53 2783.97 2000.55 2803.69C1993.35 2804.19 1985.79 2805.16 1978.23 2805.17L1607.16 2805.09C1599.13 2805.08 1593.44 2802.51 1593.63 2793.16C1593.78 2785.37 1598.3 2782.53 1605.47 2781.7C1613.16 2780.8 1620.98 2779.85 1628.37 2777.66C1661.81 2767.8 1672.8 2739.18 1653.16 2710.33C1644.05 2696.95 1632.36 2685.16 1620.81 2673.68L1342.06 2398.01C1336.75 2392.8 1330.94 2388.07 1322.56 2380.64C1321.42 2390.23 1320.14 2396 1320.13 2401.78C1320.02 2492.01 1319.88 2582.24 1320.28 2672.47C1320.36 2689.5 1322.49 2706.55 1324.19 2723.54C1326.23 2743.93 1338.17 2757.4 1355.5 2767.1C1377.28 2779.28 1400.77 2782.39 1425.3 2782.34C1439.97 2782.31 1439.98 2783.24 1439.67 2800.8C1423.04 2806.3 1104.48 2807.65 1077.43 2802.33C1073.94 2783.7 1074.18 2783.44 1090.25 2782.11C1106.47 2780.77 1123.06 2780.93 1138.78 2777.34C1168.72 2770.51 1188.96 2752.27 1192.32 2720.34C1195.17 2693.33 1197.52 2666.11 1197.59 2638.98C1198.05 2463.18 1197.92 2287.39 1197.73 2111.6C1197.7 2089.84 1196.57 2068.06 1195.3 2046.33C1192.44 1996.96 1167.57 1972 1117.4 1968.4C1104.37 1967.46 1091.23 1968.25 1075.28 1968.25V1947.1ZM3025.14 2781.92C3038.21 2780.45 3051.73 2780.14 3064.18 2776.42C3092.65 2767.94 3111.16 2749.13 3114.51 2718.62C3116.88 2697.03 3118.86 2675.25 3118.89 2653.56C3119.13 2462.18 3118.98 2270.8 3118.62 2079.42C3118.59 2063.95 3116.98 2048.35 3114.71 2033.02C3108.91 1993.73 3086.33 1972.47 3046.73 1968.67C3034.38 1967.49 3021.86 1967.95 3009.42 1967.59C3001.23 1967.35 2996.23 1963.85 2996.32 1954.89C2996.41 1945.79 3001.84 1942.79 3009.85 1942.58L3306.28 1942.66C3364.53 1943.5 3422.97 1944.24 3480.58 1955.39C3550.74 1968.98 3606.99 2003.8 3642.96 2066.2C3699.24 2163.84 3662.7 2290.4 3562.12 2346.43C3537.21 2360.3 3509.26 2368.71 3482.61 2379.41C3475.64 2382.21 3468.34 2384.17 3458.93 2387.25C3464.33 2395.77 3468.05 2402.38 3472.44 2408.5C3528.75 2486.82 3584.81 2565.33 3641.75 2643.19C3658.7 2666.37 3677.67 2688.14 3696.62 2709.76C3729.19 2746.91 3771.08 2767.68 3819.18 2776.76C3825.3 2777.92 3831.36 2779.46 3837.52 2780.2C3850.88 2781.8 3854.94 2788.68 3849.28 2803.61C3842.86 2804.1 3835.38 2805.14 3827.9 2805.16L3643.51 2805.6C3627.48 2805.83 3618.07 2799.79 3609.06 2787.26C3522.29 2666.64 3434.63 2546.66 3348.25 2425.76C3335.9 2408.47 3323.02 2401.09 3302.05 2403.15C3282.98 2405.02 3263.6 2403.54 3240.53 2403.54L3240.72 2659.77C3240.82 2677.6 3242.43 2695.52 3244.71 2713.23C3250.08 2754.93 3272.89 2776.83 3314.88 2781.08C3326.46 2782.25 3338.2 2781.88 3349.86 2782.17C3357.31 2782.35 3364.2 2783.26 3364.56 2792.98C3364.98 2804.22 3357.23 2805.1 3348.93 2805.14L3026.82 2805.22C3019.83 2805.22 3012.46 2806.07 3005.99 2804.12C3002.13 2802.96 2997.14 2797.01 2997.28 2793.4C2997.43 2789.67 3002.58 2784.38 3006.64 2783C3010.06 2781.85 3013.89 2781.95 3017.74 2782.05L3025.14 2781.92ZM6015.19 1945.87C6038.14 1940.72 6360.69 1941.07 6379.44 1945.92C6382.4 1966.12 6381.92 1966.23 6364.66 1967.98C6345.48 1969.93 6325.84 1970.91 6307.44 1976.01C6278.99 1983.9 6263.75 2004.79 6261.7 2034.29C6260.02 2058.33 6258.41 2082.44 6258.37 2106.52C6258.1 2285.46 6258.13 2464.39 6258.35 2643.32C6258.37 2665.08 6260.34 2686.83 6261.01 2708.58C6262.08 2743.46 6279.93 2765.89 6312.85 2774.85C6329.84 2779.48 6347.97 2780.2 6365.65 2782.03C6381.78 2783.7 6382.01 2783.58 6378.49 2803.74H6016.16C6015.47 2797.53 6014.83 2791.88 6013.92 2783.71C6023.97 2783.07 6032.28 2782.8 6040.52 2781.95C6053.62 2780.58 6067.05 2780.27 6079.67 2776.94C6108.52 2769.34 6127.32 2751.15 6131.2 2720.49C6133.42 2702.79 6135.65 2684.94 6135.75 2667.14C6136.24 2583.13 6136.03 2499.1 6135.97 2415.09C6135.96 2408.17 6135.21 2401.26 6134.83 2394.86C6117.48 2388.76 5776.2 2386.62 5737.92 2392.39C5737.09 2399.76 5735.36 2407.89 5735.39 2416.01L5737.57 2698.34C5740.16 2751.46 5765.07 2777.21 5818.62 2781.35C5830.87 2782.3 5843.25 2781.49 5857.03 2781.49C5857.83 2790.04 5858.37 2795.71 5858.81 2800.4C5850.05 2806.74 5523.09 2807.68 5492.64 2802.25C5492.33 2797.01 5491.99 2791.35 5491.67 2785.94C5495.35 2784.45 5497.43 2782.96 5499.6 2782.84C5512.01 2782.14 5524.59 2782.75 5536.87 2781.11C5585.38 2774.66 5605.86 2753.43 5609.96 2713.51C5611.7 2696.52 5612.9 2679.4 5612.92 2662.33C5613.12 2469.4 5613.17 2276.47 5612.87 2083.52C5612.84 2064.17 5610.77 2044.77 5608.85 2025.46C5606.73 2004.16 5594.6 1988.71 5575.41 1981.16C5559.08 1974.74 5541.37 1971.41 5524 1968.26C5514.37 1966.52 5504.17 1967.95 5492.55 1967.95V1943.97H5857.87V1966.42C5848.8 1966.97 5841.19 1967.52 5833.56 1967.88C5825.79 1968.25 5817.95 1967.87 5810.26 1968.8C5763.37 1974.48 5739.35 1997.96 5738.27 2045.09C5736.12 2138.39 5736.16 2231.74 5735.51 2325.07C5735.47 2330.27 5737.38 2335.49 5738.59 2341.84H6133.26C6134.21 2334.78 6135.87 2328.17 6135.87 2321.57C6135.89 2235.22 6135.73 2148.86 6135.44 2062.51C6135.41 2053.2 6134.24 2043.9 6133.65 2034.59C6131.66 2003.39 6113.64 1984.66 6085.46 1975.28C6073.13 1971.17 6059.79 1969.63 6046.76 1968.17C6036.94 1967.06 6026.9 1967.95 6013.95 1967.95C6014.56 1957.17 6014.89 1951.3 6015.19 1945.87ZM3933.41 2805.14C3927.35 2805.13 3921.29 2803.98 3915.37 2803.38C3910.28 2790.98 3911.48 2782.7 3925.35 2779.98C3929.92 2779.08 3934.37 2777.54 3938.93 2776.6C3966.43 2770.94 3987.73 2756.18 4001.33 2731.75C4016.44 2704.61 4032.2 2677.6 4044.47 2649.15L4344.33 1950.08C4351.15 1939.7 4364.53 1939.61 4371.12 1949.99C4374.42 1955.17 4376.4 1961.23 4378.8 1966.96C4473.44 2192.95 4567.89 2419.03 4662.91 2644.86C4674.04 2671.3 4687.52 2696.87 4701.31 2722.06C4719.24 2754.82 4747.68 2773.69 4784.46 2779.99C4789.06 2780.78 4794.44 2780.32 4798.06 2782.63C4801.93 2785.11 4806.49 2790.22 4806.42 2794.11C4806.35 2797.73 4801.21 2802.8 4797.18 2804.39C4792.42 2806.27 4786.45 2805.22 4781.01 2805.22L4491.58 2805.16C4484 2804.69 4475.13 2806.16 4474.39 2794.57C4473.69 2783.53 4481.29 2782.47 4489.56 2781.45C4498.8 2780.31 4508.09 2778.97 4517.1 2776.67C4551.39 2767.9 4564.62 2747.46 4557.41 2712.66C4554.11 2696.75 4549.31 2680.95 4543.27 2665.87C4526.52 2623.98 4508.33 2582.68 4491.68 2540.76C4486.51 2527.76 4478.86 2523.46 4465.31 2523.52C4368.83 2523.94 4272.36 2523.91 4175.88 2523.56C4163.33 2523.52 4155.94 2527.46 4150.98 2539.49C4132.59 2584.06 4113 2628.14 4094.56 2672.7C4088.95 2686.28 4084.39 2700.57 4081.52 2714.96C4076.01 2742.56 4087.41 2762.42 4114.11 2771.42C4128.01 2776.1 4142.86 2777.95 4157.31 2780.95C4161.85 2781.89 4167.3 2781.15 4170.84 2783.47C4173.98 2785.53 4176.81 2790.89 4176.51 2794.53C4176.22 2798.02 4172.38 2802.55 4168.95 2804.12C4165.01 2805.93 4159.8 2805.2 4155.15 2805.2L3933.41 2805.14ZM2058.98 2780.16C2107.36 2774.26 2134.05 2742.02 2152.64 2701.55C2181.52 2638.68 2209.55 2575.4 2236.85 2511.82C2315.42 2328.89 2393.43 2145.73 2471.69 1962.66C2473.52 1958.38 2475.11 1953.86 2477.67 1950.03C2484.53 1939.78 2497.86 1939.64 2504.5 1949.95C2507.83 1955.12 2509.85 1961.17 2512.25 1966.9C2605.33 2189.29 2698.26 2411.74 2791.61 2634.02C2802.73 2660.5 2815.6 2686.3 2828.53 2711.97C2848.42 2751.5 2879.88 2775.37 2924.5 2781.29C2939.02 2783.22 2938.9 2784.13 2938.55 2800.75C2921.23 2806.57 2634.35 2807.4 2611.54 2801.69C2609.42 2784.17 2609.44 2784.24 2623.67 2781.49C2635.1 2779.28 2646.83 2777.91 2657.82 2774.33C2685.36 2765.35 2697.8 2744.83 2691.82 2716.49C2687.98 2698.33 2682.4 2680.32 2675.55 2663.05C2659.5 2622.58 2641.78 2582.76 2625.67 2542.3C2620.31 2528.85 2612.72 2523.4 2597.99 2523.48C2502.3 2524 2406.62 2523.92 2310.93 2523.55C2297.64 2523.49 2289.38 2527.34 2284.06 2540.28C2265.15 2586.31 2245.07 2631.87 2226.06 2677.86C2221.04 2690 2217.31 2702.88 2214.67 2715.77C2209.5 2740.9 2219.72 2761.15 2243.91 2769.8C2260.55 2775.75 2278.58 2777.92 2296.06 2781.4C2309.84 2784.15 2309.88 2783.9 2307.45 2803.51H2048.21C2042.63 2789.97 2045.55 2781.8 2058.98 2780.16ZM5368.31 1957.45C5369.77 1953.87 5370.58 1949.73 5372.93 1946.87C5378.73 1939.8 5390.77 1942.36 5393.29 1951.09C5394.35 1954.75 5394.3 1958.8 5394.31 1962.67C5394.36 2044.35 5394.37 2126.05 5394.33 2207.73C5394.33 2211.61 5394.94 2216.01 5393.35 2219.23C5391.55 2222.85 5387.53 2227.91 5384.58 2227.84C5380.14 2227.74 5374.58 2224.66 5371.78 2221.08C5369.23 2217.83 5370.08 2212.1 5368.83 2207.63C5360.66 2178.5 5355.13 2148.23 5343.53 2120.51C5305.62 2029.88 5196.85 1974.79 5103.77 1996.73C5068.04 2005.15 5039.89 2024.77 5019.06 2054.63C4988.65 2098.21 4991.41 2150.88 5027.47 2189.82C5041.62 2205.1 5057.74 2219.4 5075.25 2230.56L5331.97 2382.99C5358.13 2398.68 5381.42 2418.15 5400.71 2442.01C5477.59 2537.17 5462.5 2668.84 5366.06 2747.81C5326.24 2780.42 5280.37 2798.59 5229.79 2803.5C5181.58 2808.18 5133.49 2806.52 5086.56 2791.53C5053.24 2780.9 5019.71 2770.75 4985.83 2762.05C4955.77 2754.33 4945.39 2761.03 4934.97 2790.44C4929.79 2805.07 4929.79 2805.07 4909.55 2801.77C4909.13 2794.57 4908.31 2786.95 4908.3 2779.33C4908.21 2703.09 4908.23 2626.84 4908.26 2550.6C4908.27 2545.16 4907.3 2539.23 4909.13 2534.43C4910.72 2530.24 4915.35 2524.95 4919.18 2524.48C4923.31 2523.97 4929.18 2527.51 4932.23 2531.06C4934.95 2534.22 4934.83 2539.81 4935.98 2544.32C4940.19 2560.9 4944.21 2577.53 4948.67 2594.04C4972.75 2683.25 5034.57 2731.85 5121.33 2752.23C5162.89 2762 5204.83 2761.32 5245.74 2747.58C5303.9 2728.07 5342.76 2675.99 5340.77 2620.05C5339.52 2585.01 5325.26 2554.65 5300.7 2530.58C5283.09 2513.33 5263.16 2497.67 5242.1 2484.88C5184.26 2449.76 5124.8 2417.31 5066.95 2382.22C5037.1 2364.11 5008.08 2344.15 4980.88 2322.29C4944.98 2293.44 4919.14 2256.7 4907.53 2211.24C4883.6 2117.49 4927.51 2020.83 5016.5 1973.12C5080.8 1938.66 5148.86 1935.87 5218.27 1953.34C5240.04 1958.82 5260.96 1967.7 5282.19 1975.27C5290.98 1978.4 5299.37 1982.66 5308.23 1985.55C5317.35 1988.53 5325.08 1990.1 5331.78 1990.1C5348.76 1990.1 5359.06 1980.04 5368.31 1957.45Z" fill="url(#paint4_linear_1772_1863)"/>
<path d="M1719.77 502.859V804.213H1780.6V678.393H1792.93C1806.91 678.393 1817.1 679.525 1823.57 681.813C1830 684.054 1836.1 688.238 1841.86 694.338C1847.59 700.421 1858.3 715.185 1873.92 738.622L1917.89 804.213H1990.65L1953.85 745.438C1939.34 721.959 1927.78 705.659 1919.23 696.509C1910.67 687.3 1899.82 678.889 1886.64 671.185C1913.09 667.364 1932.95 658.064 1946.26 643.372C1959.54 628.601 1966.19 609.947 1966.19 587.351C1966.19 569.559 1961.81 553.709 1953.03 539.875C1944.26 526.038 1932.58 516.417 1918 510.979C1903.41 505.563 1880 502.859 1847.82 502.859H1719.77ZM1780.6 553.854H1828.08C1852.73 553.854 1867.53 554.171 1872.47 554.863C1882.34 556.484 1889.98 560.426 1895.38 566.705C1900.81 572.905 1903.5 581.101 1903.5 591.243C1903.5 600.297 1901.45 607.854 1897.35 613.834C1893.23 619.913 1887.54 624.121 1880.28 626.609C1873.02 629.071 1854.81 630.326 1825.62 630.326H1780.6V553.854Z" fill="url(#paint5_linear_1772_1863)"/>
<path d="M1095.9 3898.48L878.916 4161.28V3898.48H816.523V4442.38H878.916V4248.52L936.957 4179.26L1110.98 4442.38H1183.91L977.811 4130.98L1170.05 3898.48H1095.9Z" fill="url(#paint6_linear_1772_1863)"/>
<path d="M1322.32 4036.3H1263.14V4442.38H1322.32V4036.3Z" fill="url(#paint7_linear_1772_1863)"/>
<path d="M1322.32 3898.48H1263.14V4000.81H1322.32V3898.48Z" fill="url(#paint8_linear_1772_1863)"/>
<path d="M1481.22 3924.46V4036.29H1424.3V4089.54H1481.22V4368.84C1481.22 4419.77 1507.53 4446.7 1557.31 4446.7L1614.96 4439.9V4384.83L1596.93 4389.6C1584.83 4392.8 1574.95 4393.44 1562.92 4393.44C1550.16 4393.44 1540.4 4391.42 1540.4 4365.96V4089.54H1610.15V4036.29H1540.4V3924.46H1481.22Z" fill="url(#paint9_linear_1772_1863)"/>
<path d="M1692.1 4237.53C1692.1 4329.18 1707.63 4451.03 1841.95 4451.03C1960.27 4451.03 1986.19 4345.36 1986.19 4304.64V4290.28H1923.79V4304.64C1923.79 4305.57 1922.91 4397.78 1846.76 4397.78C1791.37 4397.78 1754.48 4370.77 1754.48 4238.97C1754.48 4098.86 1803.8 4080.89 1846.76 4080.89C1908.72 4080.89 1921.39 4142.41 1921.39 4158.89V4173.25H1983.78V4158.89C1983.78 4124.84 1958.76 4027.64 1847.56 4027.64C1744.4 4027.64 1692.1 4098.26 1692.1 4237.53Z" fill="url(#paint10_linear_1772_1863)"/>
<path d="M2094.6 3898.48V4442.38H2153.79V4186.3C2153.79 4133.83 2180.33 4080.89 2239.64 4080.89C2288.66 4080.89 2308.65 4102.86 2308.65 4156.73V4442.38H2367.84V4143.73C2367.84 4071.05 2322.91 4027.64 2247.66 4027.64C2206.15 4027.64 2174.93 4043.52 2153.79 4064.41V3898.48H2094.6Z" fill="url(#paint11_linear_1772_1863)"/>
<path d="M2490.7 4228.87C2490.7 4338.73 2508.5 4451.02 2640.55 4451.02C2739.65 4451.02 2784.79 4375.15 2784.79 4304.64L2784.79 4290.28H2725.6V4304.64C2725.6 4308.44 2724.6 4397.78 2637.35 4397.78C2564.39 4397.78 2554.17 4324.93 2553.18 4251.89L2790.4 4251.89V4237.52C2790.4 4147.43 2775.37 4027.64 2645.36 4027.64C2547.07 4027.64 2490.7 4100.98 2490.7 4228.87ZM2643.76 4080.89C2699.67 4080.89 2725.23 4116.29 2727.79 4198.64H2553.44C2555.83 4149.15 2572.12 4080.89 2643.76 4080.89Z" fill="url(#paint12_linear_1772_1863)"/>
<path d="M2966.82 4064.41V4036.29H2907.64L2907.64 4442.37H2966.82V4186.29C2966.82 4133.82 2993.37 4080.88 3052.68 4080.88C3101.7 4080.88 3121.69 4102.86 3121.69 4156.72V4442.37H3180.88V4143.72C3180.88 4071.04 3135.95 4027.64 3060.7 4027.64C3019.19 4027.64 2987.97 4043.51 2966.82 4064.41Z" fill="url(#paint13_linear_1772_1863)"/>
<path d="M4202.4 3898.48H4140V4442.38H4202.4V3898.48Z" fill="url(#paint14_linear_1772_1863)"/>
<path d="M4402.83 4064.43V4036.3H4343.66V4442.38H4402.83V4186.3C4402.83 4133.83 4429.38 4080.89 4488.7 4080.89C4537.72 4080.89 4557.72 4102.86 4557.72 4156.73V4442.38H4616.89V4143.73C4616.89 4071.05 4571.97 4027.64 4496.72 4027.64C4455.21 4027.64 4423.98 4043.54 4402.83 4064.43Z" fill="url(#paint15_linear_1772_1863)"/>
<path d="M4772.62 3924.46V4036.29H4715.69V4089.54H4772.62V4368.84C4772.62 4419.77 4798.93 4446.7 4848.71 4446.7L4906.36 4439.9V4384.83L4888.32 4389.6C4876.22 4392.8 4866.35 4393.44 4854.32 4393.44C4841.56 4393.44 4831.8 4391.42 4831.8 4365.96V4089.54H4901.55V4036.29H4831.8V3924.46H4772.62Z" fill="url(#paint16_linear_1772_1863)"/>
<path d="M4983.5 4228.87C4983.5 4338.73 5001.31 4451.02 5133.35 4451.02C5232.44 4451.02 5277.58 4375.15 5277.58 4304.64V4290.28H5218.4V4304.64C5218.4 4308.44 5217.39 4397.78 5130.14 4397.78C5057.19 4397.78 5046.95 4324.93 5045.97 4251.89L5283.2 4251.89V4237.52C5283.2 4147.43 5268.17 4027.64 5138.16 4027.64C5039.88 4027.64 4983.5 4100.98 4983.5 4228.87ZM5136.55 4080.89C5192.46 4080.89 5218.02 4116.29 5220.59 4198.64H5046.23C5048.62 4149.15 5064.92 4080.88 5136.55 4080.89Z" fill="url(#paint17_linear_1772_1863)"/>
<path d="M5551.9 4027.64C5514.05 4027.64 5482.19 4041.32 5459.63 4066.32V4036.29H5400.45V4442.37H5459.63V4188.47C5459.63 4134.92 5488.16 4080.89 5551.9 4080.89H5583.9V4027.64H5551.9Z" fill="url(#paint18_linear_1772_1863)"/>
<path d="M5736.24 3898.48H5677.05V4000.81H5736.24V3898.48Z" fill="url(#paint19_linear_1772_1863)"/>
<path d="M5736.24 4036.3H5677.05V4442.38H5736.24V4036.3Z" fill="url(#paint20_linear_1772_1863)"/>
<path d="M5862.28 4238.97C5862.28 4291.41 5862.28 4451.02 6014.53 4451.02C6171.6 4451.02 6171.6 4291.41 6171.6 4238.97C6171.6 4186.71 6171.6 4027.64 6019.34 4027.64C5862.28 4027.64 5862.28 4186.71 5862.28 4238.97ZM5924.67 4239.7C5924.67 4099.76 5971.31 4080.89 6016.94 4080.89C6062.56 4080.89 6109.19 4099.76 6109.19 4239.7C6109.19 4379 6062.56 4397.78 6016.94 4397.78C5971.31 4397.78 5924.67 4379 5924.67 4239.7Z" fill="url(#paint21_linear_1772_1863)"/>
<path d="M6445.9 4027.64C6408.05 4027.64 6376.19 4041.32 6353.63 4066.32V4036.29H6294.45V4442.37H6353.63V4188.47C6353.63 4134.92 6382.17 4080.89 6445.9 4080.89H6477.9V4027.64H6445.9Z" fill="url(#paint22_linear_1772_1863)"/>
<path d="M6554.23 4139.4C6554.23 4207.81 6604.49 4233.82 6642.27 4247.42L6704.07 4269.8C6748.04 4285.51 6757.06 4306.63 6757.06 4333.49C6757.06 4352.82 6749.95 4397.77 6684.04 4397.77C6629.83 4397.77 6604.59 4373 6604.59 4319.78V4293.15H6545.41V4317.62C6545.41 4406.13 6592.05 4451.02 6684.04 4451.02C6762.51 4451.02 6819.46 4401.28 6819.46 4332.77C6819.46 4276.74 6790.57 4238.43 6733.58 4218.89L6669.49 4197.26C6630.95 4183.92 6616.62 4167.46 6616.62 4136.51C6616.62 4088.11 6658.35 4080.88 6683.23 4080.88C6728.24 4080.88 6747.44 4100.32 6747.44 4145.89V4171.08H6806.63V4145.16C6806.63 4068.28 6763.95 4027.64 6683.23 4027.64C6604.87 4027.64 6554.23 4071.5 6554.23 4139.4Z" fill="url(#paint23_linear_1772_1863)"/>
<path d="M3670.88 3899.07H3640.9V4441.6H3670.88V3899.07Z" fill="url(#paint24_linear_1772_1863)"/>
<defs>
<linearGradient id="paint0_linear_1772_1863" x1="-573.88" y1="-1709.02" x2="11763.9" y2="8193.2" gradientUnits="userSpaceOnUse">
<stop stop-color="#99785F"/>
<stop offset="0.38" stop-color="#D9B898"/>
<stop offset="0.56" stop-color="#BF9D7F"/>
<stop offset="1" stop-color="#D9B898"/>
</linearGradient>
<linearGradient id="paint1_linear_1772_1863" x1="-639.543" y1="-1627.22" x2="11698.3" y2="8275.01" gradientUnits="userSpaceOnUse">
<stop stop-color="#99785F"/>
<stop offset="0.38" stop-color="#D9B898"/>
<stop offset="0.56" stop-color="#BF9D7F"/>
<stop offset="1" stop-color="#D9B898"/>
</linearGradient>
<linearGradient id="paint2_linear_1772_1863" x1="-1371.54" y1="-715.181" x2="10966.3" y2="9187.04" gradientUnits="userSpaceOnUse">
<stop stop-color="#99785F"/>
<stop offset="0.38" stop-color="#D9B898"/>
<stop offset="0.56" stop-color="#BF9D7F"/>
<stop offset="1" stop-color="#D9B898"/>
</linearGradient>
<linearGradient id="paint3_linear_1772_1863" x1="-937.152" y1="-1256.41" x2="11400.6" y2="8645.82" gradientUnits="userSpaceOnUse">
<stop stop-color="#99785F"/>
<stop offset="0.38" stop-color="#D9B898"/>
<stop offset="0.56" stop-color="#BF9D7F"/>
<stop offset="1" stop-color="#D9B898"/>
</linearGradient>
<linearGradient id="paint4_linear_1772_1863" x1="-953.78" y1="-1235.68" x2="11384" y2="8666.54" gradientUnits="userSpaceOnUse">
<stop stop-color="#99785F"/>
<stop offset="0.38" stop-color="#D9B898"/>
<stop offset="0.56" stop-color="#BF9D7F"/>
<stop offset="1" stop-color="#D9B898"/>
</linearGradient>
<linearGradient id="paint5_linear_1772_1863" x1="-790.589" y1="-1439.01" x2="11547.2" y2="8463.2" gradientUnits="userSpaceOnUse">
<stop stop-color="#99785F"/>
<stop offset="0.38" stop-color="#D9B898"/>
<stop offset="0.56" stop-color="#BF9D7F"/>
<stop offset="1" stop-color="#D9B898"/>
</linearGradient>
<linearGradient id="paint6_linear_1772_1863" x1="-2829.94" y1="1101.93" x2="9507.86" y2="11004.2" gradientUnits="userSpaceOnUse">
<stop stop-color="#99785F"/>
<stop offset="0.38" stop-color="#D9B898"/>
<stop offset="0.56" stop-color="#BF9D7F"/>
<stop offset="1" stop-color="#D9B898"/>
</linearGradient>
<linearGradient id="paint7_linear_1772_1863" x1="-2746.26" y1="997.666" x2="9591.54" y2="10899.9" gradientUnits="userSpaceOnUse">
<stop stop-color="#99785F"/>
<stop offset="0.38" stop-color="#D9B898"/>
<stop offset="0.56" stop-color="#BF9D7F"/>
<stop offset="1" stop-color="#D9B898"/>
</linearGradient>
<linearGradient id="paint8_linear_1772_1863" x1="-2604.85" y1="821.465" x2="9732.97" y2="10723.7" gradientUnits="userSpaceOnUse">
<stop stop-color="#99785F"/>
<stop offset="0.38" stop-color="#D9B898"/>
<stop offset="0.56" stop-color="#BF9D7F"/>
<stop offset="1" stop-color="#D9B898"/>
</linearGradient>
<linearGradient id="paint9_linear_1772_1863" x1="-2626.07" y1="847.916" x2="9711.73" y2="10750.1" gradientUnits="userSpaceOnUse">
<stop stop-color="#99785F"/>
<stop offset="0.38" stop-color="#D9B898"/>
<stop offset="0.56" stop-color="#BF9D7F"/>
<stop offset="1" stop-color="#D9B898"/>
</linearGradient>
<linearGradient id="paint10_linear_1772_1863" x1="-2530.75" y1="729.155" x2="9807.05" y2="10631.4" gradientUnits="userSpaceOnUse">
<stop stop-color="#99785F"/>
<stop offset="0.38" stop-color="#D9B898"/>
<stop offset="0.56" stop-color="#BF9D7F"/>
<stop offset="1" stop-color="#D9B898"/>
</linearGradient>
<linearGradient id="paint11_linear_1772_1863" x1="-2386.86" y1="549.88" x2="9950.94" y2="10452.1" gradientUnits="userSpaceOnUse">
<stop stop-color="#99785F"/>
<stop offset="0.38" stop-color="#D9B898"/>
<stop offset="0.56" stop-color="#BF9D7F"/>
<stop offset="1" stop-color="#D9B898"/>
</linearGradient>
<linearGradient id="paint12_linear_1772_1863" x1="-2217.89" y1="339.347" x2="10119.9" y2="10241.6" gradientUnits="userSpaceOnUse">
<stop stop-color="#99785F"/>
<stop offset="0.38" stop-color="#D9B898"/>
<stop offset="0.56" stop-color="#BF9D7F"/>
<stop offset="1" stop-color="#D9B898"/>
</linearGradient>
<linearGradient id="paint13_linear_1772_1863" x1="-2071.55" y1="157.018" x2="10266.2" y2="10059.2" gradientUnits="userSpaceOnUse">
<stop stop-color="#99785F"/>
<stop offset="0.38" stop-color="#D9B898"/>
<stop offset="0.56" stop-color="#BF9D7F"/>
<stop offset="1" stop-color="#D9B898"/>
</linearGradient>
<linearGradient id="paint14_linear_1772_1863" x1="-1584.86" y1="-449.37" x2="10752.9" y2="9452.81" gradientUnits="userSpaceOnUse">
<stop stop-color="#99785F"/>
<stop offset="0.38" stop-color="#D9B898"/>
<stop offset="0.56" stop-color="#BF9D7F"/>
<stop offset="1" stop-color="#D9B898"/>
</linearGradient>
<linearGradient id="paint15_linear_1772_1863" x1="-1508.95" y1="-543.982" x2="10828.9" y2="9358.25" gradientUnits="userSpaceOnUse">
<stop stop-color="#99785F"/>
<stop offset="0.38" stop-color="#D9B898"/>
<stop offset="0.56" stop-color="#BF9D7F"/>
<stop offset="1" stop-color="#D9B898"/>
</linearGradient>
<linearGradient id="paint16_linear_1772_1863" x1="-1336.55" y1="-758.775" x2="11001.3" y2="9143.45" gradientUnits="userSpaceOnUse">
<stop stop-color="#99785F"/>
<stop offset="0.38" stop-color="#D9B898"/>
<stop offset="0.56" stop-color="#BF9D7F"/>
<stop offset="1" stop-color="#D9B898"/>
</linearGradient>
<linearGradient id="paint17_linear_1772_1863" x1="-1241.25" y1="-877.514" x2="11096.6" y2="9024.71" gradientUnits="userSpaceOnUse">
<stop stop-color="#99785F"/>
<stop offset="0.38" stop-color="#D9B898"/>
<stop offset="0.56" stop-color="#BF9D7F"/>
<stop offset="1" stop-color="#D9B898"/>
</linearGradient>
<linearGradient id="paint18_linear_1772_1863" x1="-1098.86" y1="-1054.92" x2="11238.9" y2="8847.28" gradientUnits="userSpaceOnUse">
<stop stop-color="#99785F"/>
<stop offset="0.38" stop-color="#D9B898"/>
<stop offset="0.56" stop-color="#BF9D7F"/>
<stop offset="1" stop-color="#D9B898"/>
</linearGradient>
<linearGradient id="paint19_linear_1772_1863" x1="-875.586" y1="-1333.19" x2="11462.3" y2="8569.1" gradientUnits="userSpaceOnUse">
<stop stop-color="#99785F"/>
<stop offset="0.38" stop-color="#D9B898"/>
<stop offset="0.56" stop-color="#BF9D7F"/>
<stop offset="1" stop-color="#D9B898"/>
</linearGradient>
<linearGradient id="paint20_linear_1772_1863" x1="-1017" y1="-1156.98" x2="11320.8" y2="8745.31" gradientUnits="userSpaceOnUse">
<stop stop-color="#99785F"/>
<stop offset="0.38" stop-color="#D9B898"/>
<stop offset="0.56" stop-color="#BF9D7F"/>
<stop offset="1" stop-color="#D9B898"/>
</linearGradient>
<linearGradient id="paint21_linear_1772_1863" x1="-895.346" y1="-1308.48" x2="11442.5" y2="8593.71" gradientUnits="userSpaceOnUse">
<stop stop-color="#99785F"/>
<stop offset="0.38" stop-color="#D9B898"/>
<stop offset="0.56" stop-color="#BF9D7F"/>
<stop offset="1" stop-color="#D9B898"/>
</linearGradient>
<linearGradient id="paint22_linear_1772_1863" x1="-748.618" y1="-1491.33" x2="11589.2" y2="8410.9" gradientUnits="userSpaceOnUse">
<stop stop-color="#99785F"/>
<stop offset="0.38" stop-color="#D9B898"/>
<stop offset="0.56" stop-color="#BF9D7F"/>
<stop offset="1" stop-color="#D9B898"/>
</linearGradient>
<linearGradient id="paint23_linear_1772_1863" x1="-635.645" y1="-1632.08" x2="11702.2" y2="8270.13" gradientUnits="userSpaceOnUse">
<stop stop-color="#99785F"/>
<stop offset="0.38" stop-color="#D9B898"/>
<stop offset="0.56" stop-color="#BF9D7F"/>
<stop offset="1" stop-color="#D9B898"/>
</linearGradient>
<linearGradient id="paint24_linear_1772_1863" x1="-1786.71" y1="-197.879" x2="10551.1" y2="9704.31" gradientUnits="userSpaceOnUse">
<stop stop-color="#99785F"/>
<stop offset="0.38" stop-color="#D9B898"/>
<stop offset="0.56" stop-color="#BF9D7F"/>
<stop offset="1" stop-color="#D9B898"/>
</linearGradient>
</defs>
</svg>
